<svg width="55" height="55" viewBox="0 0 55 55" fill="none" xmlns="http://www.w3.org/2000/svg">
<path d="M9.16683 50.4163C7.90641 50.4163 6.82742 49.9676 5.92985 49.07C5.03228 48.1724 4.5835 47.0934 4.5835 45.833V20.6247C4.5835 19.3643 5.03228 18.2853 5.92985 17.3877C6.82742 16.4901 7.90641 16.0413 9.16683 16.0413H20.6252V9.16634C20.6252 7.90592 21.0739 6.82693 21.9715 5.92936C22.8691 5.03179 23.9481 4.58301 25.2085 4.58301H29.7918C31.0522 4.58301 32.1312 5.03179 33.0288 5.92936C33.9264 6.82693 34.3752 7.90592 34.3752 9.16634V16.0413H45.8335C47.0939 16.0413 48.1729 16.4901 49.0705 17.3877C49.968 18.2853 50.4168 19.3643 50.4168 20.6247V45.833C50.4168 47.0934 49.968 48.1724 49.0705 49.07C48.1729 49.9676 47.0939 50.4163 45.8335 50.4163H9.16683ZM13.7502 41.2497H27.5002V40.2184C27.5002 39.5691 27.3187 38.9676 26.9559 38.4137C26.593 37.8599 26.087 37.4302 25.4377 37.1247C24.6738 36.7809 23.9003 36.5231 23.1173 36.3512C22.3344 36.1794 21.5036 36.0934 20.6252 36.0934C19.7467 36.0934 18.916 36.1794 18.133 36.3512C17.35 36.5231 16.5766 36.7809 15.8127 37.1247C15.1634 37.4302 14.6573 37.8599 14.2944 38.4137C13.9316 38.9676 13.7502 39.5691 13.7502 40.2184V41.2497ZM32.0835 37.8122H41.2502V34.3747H32.0835V37.8122ZM20.6252 34.3747C21.58 34.3747 22.3917 34.0405 23.0601 33.3721C23.7285 32.7037 24.0627 31.892 24.0627 30.9372C24.0627 29.9823 23.7285 29.1707 23.0601 28.5023C22.3917 27.8339 21.58 27.4997 20.6252 27.4997C19.6703 27.4997 18.8587 27.8339 18.1903 28.5023C17.5219 29.1707 17.1877 29.9823 17.1877 30.9372C17.1877 31.892 17.5219 32.7037 18.1903 33.3721C18.8587 34.0405 19.6703 34.3747 20.6252 34.3747ZM32.0835 30.9372H41.2502V27.4997H32.0835V30.9372ZM25.2085 20.6247H29.7918V9.16634H25.2085V20.6247Z" fill="#564D4A"/>
</svg>
